
<svg width="28" height="28" viewBox="0 0 28 28" fill="none" xmlns="http://www.w3.org/2000/svg">
<path d="M3 1L1 1.5L0.5 22L2 23.5H20V5.5L16 1H3Z" fill="white"/>
<path d="M20.9487 13.6269L22.7501 17.5003H26.2384C26.4148 17.4936 26.589 17.5415 26.7371 17.6375C26.8853 17.7335 27.0002 17.8729 27.0662 18.0367C27.1321 18.2004 27.146 18.3805 27.1058 18.5524C27.0656 18.7243 26.9733 18.8796 26.8416 18.9971L23.8082 21.9873L25.4882 25.8524C25.562 26.0292 25.5784 26.2247 25.5352 26.4113C25.4921 26.5979 25.3915 26.7663 25.2477 26.8928C25.1038 27.0192 24.9239 27.0974 24.7333 27.1163C24.5427 27.1352 24.351 27.0939 24.1851 26.9981L20.1251 24.7138L16.0651 27.0016C15.8992 27.0974 15.7074 27.1387 15.5168 27.1198C15.3262 27.1009 15.1463 27.0227 15.0025 26.8963C14.8586 26.7698 14.758 26.6014 14.7149 26.4148C14.6717 26.2282 14.6882 26.0327 14.7619 25.8559L16.4419 21.9908L13.4086 19.0006C13.2749 18.8838 13.1809 18.7284 13.1394 18.5559C13.098 18.3833 13.1111 18.2022 13.1771 18.0374C13.2431 17.8727 13.3586 17.7325 13.5077 17.6363C13.6568 17.5401 13.8321 17.4925 14.0094 17.5003H17.5094L19.3072 13.6234C19.3876 13.4757 19.5064 13.3525 19.6511 13.2667C19.7957 13.181 19.9609 13.1359 20.129 13.1362C20.2972 13.1366 20.4621 13.1824 20.6064 13.2688C20.7507 13.3551 20.869 13.4789 20.9487 13.6269Z" fill="url(#paint0_linear)" stroke="#1A1A1A" stroke-width="1.5" stroke-linecap="round" stroke-linejoin="round"/>
<path d="M9.625 23.625H2.625C2.16087 23.625 1.71575 23.4406 1.38756 23.1124C1.05937 22.7842 0.875 22.3391 0.875 21.875V2.625C0.875 2.16087 1.05937 1.71575 1.38756 1.38756C1.71575 1.05937 2.16087 0.875 2.625 0.875H15.0255C15.4893 0.875099 15.9341 1.05931 16.2622 1.38717L19.6128 4.73783C19.9407 5.0659 20.1249 5.51069 20.125 5.9745V9.625" stroke="#1A1A1A" stroke-width="1.5" stroke-linecap="round" stroke-linejoin="round"/>
<defs>
<linearGradient id="paint0_linear" x1="28.3516" y1="21.0184" x2="13.2269" y2="21.0184" gradientUnits="userSpaceOnUse">
<stop stop-color="#FFD490"/>
<stop offset="1" stop-color="#FDBB55"/>
</linearGradient>
</defs>
</svg>
