<svg width="24" height="24" viewBox="0 0 24 24" fill="none" xmlns="http://www.w3.org/2000/svg">
<circle cx="12" cy="12" r="12" fill="#46C6EF"/>
<path d="M7.90907 13.0306C9.26262 13.0306 10.3636 11.9293 10.3636 10.5761C10.3636 9.92206 10.1051 9.32861 9.68644 8.88815C11.7046 8.6607 13.7656 8.97788 15.6283 9.8247L17.7739 10.8C17.8473 10.8332 17.9239 10.8491 17.9994 10.8491C18.2067 10.8491 18.4047 10.7302 18.4961 10.5292C18.6207 10.2551 18.4996 9.93161 18.2255 9.80697L16.0797 8.8317C13.4975 7.65788 10.569 7.40915 7.82644 8.12588C6.51162 8.16952 5.45453 9.25033 5.45453 10.5761C5.45453 11.9293 6.55553 13.0306 7.90907 13.0306ZM7.90907 9.21242C8.66098 9.21242 9.27271 9.82415 9.27271 10.5761C9.27271 11.328 8.66098 11.9397 7.90907 11.9397C7.15717 11.9397 6.54544 11.328 6.54544 10.5761C6.54544 9.82415 7.15717 9.21242 7.90907 9.21242Z" fill="white" stroke="white" stroke-width="0.2"/>
<path d="M18.5454 14.1407C18.5454 12.7874 17.4444 11.6862 16.0909 11.6862C14.7374 11.6862 13.6364 12.7874 13.6364 14.1407C13.6364 14.7947 13.8952 15.3884 14.3135 15.8289C12.2951 16.0566 10.2341 15.7392 8.37108 14.8921L6.22554 13.9168C5.95281 13.7924 5.62854 13.913 5.50363 14.1876C5.37899 14.462 5.50008 14.7852 5.77445 14.9098L7.91999 15.8851C9.53699 16.6201 11.2893 16.9929 13.0478 16.9929C14.0956 16.9929 15.1454 16.8584 16.1694 16.5912C17.4864 16.5494 18.5454 15.4675 18.5454 14.1407ZM16.0909 15.5043C15.339 15.5043 14.7273 14.8926 14.7273 14.1407C14.7273 13.3888 15.339 12.7771 16.0909 12.7771C16.8428 12.7771 17.4545 13.3888 17.4545 14.1407C17.4545 14.8926 16.8428 15.5043 16.0909 15.5043Z" fill="white" stroke="white" stroke-width="0.2"/>
</svg>
