<svg width="22" height="22" viewBox="0 0 22 22" fill="none" xmlns="http://www.w3.org/2000/svg">
<path d="M11 20.375C16.1777 20.375 20.375 16.1777 20.375 11C20.375 5.82233 16.1777 1.625 11 1.625C5.82233 1.625 1.625 5.82233 1.625 11C1.625 16.1777 5.82233 20.375 11 20.375Z" stroke="#808080" stroke-width="1.5" stroke-linecap="round" stroke-linejoin="round"/>
<path d="M8 8.5C8 8.91421 7.66421 9.25 7.25 9.25C6.83579 9.25 6.5 8.91421 6.5 8.5C6.5 8.08579 6.83579 7.75 7.25 7.75C7.66421 7.75 8 8.08579 8 8.5Z" stroke="#808080"/>
<path d="M15.5 8.5C15.5 8.91421 15.1642 9.25 14.75 9.25C14.3358 9.25 14 8.91421 14 8.5C14 8.08579 14.3358 7.75 14.75 7.75C15.1642 7.75 15.5 8.08579 15.5 8.5Z" stroke="#808080"/>
<path d="M14.75 13.25C14.3611 13.8971 13.8114 14.4326 13.1543 14.8044C12.4971 15.1761 11.755 15.3715 11 15.3715C10.245 15.3715 9.50286 15.1761 8.84574 14.8044C8.18861 14.4326 7.63888 13.8971 7.25 13.25" stroke="#808080" stroke-width="1.5" stroke-linecap="round" stroke-linejoin="round"/>
</svg>
